<svg xmlns="http://www.w3.org/2000/svg" viewBox="0 0 1200 630" font-family="'Segoe UI', 'Helvetica Neue', Arial, sans-serif">
  <!-- Background -->
  <rect width="1200" height="630" fill="#0d0d0d"/>

  <!-- Top orange line -->
  <rect x="0" y="0" width="1200" height="4" fill="#ff6a1a"/>

  <!-- Title -->
  <text x="600" y="245" text-anchor="middle" fill="#ffffff" font-size="86" font-weight="700">Shellcode Loaders</text>

  <!-- Subtitle -->
  <text x="600" y="305" text-anchor="middle" fill="#9a9a9a" font-size="34" font-weight="300">The Art of Execution</text>

  <!-- Orange divider -->
  <rect x="560" y="335" width="80" height="3" fill="#ff6a1a"/>

  <!-- Author -->
  <text x="600" y="385" text-anchor="middle" fill="#7a7a7a" font-size="24" font-weight="400">by 0xDbgMan</text>

  <!-- Tag pills -->
  <g font-size="16" fill="#9a9a9a">
    <g>
      <rect x="170" y="490" width="100" height="34" rx="6" fill="none" stroke="#3a3a3a" stroke-width="1"/>
      <text x="220" y="513" text-anchor="middle">Classic</text>
    </g>
    <g>
      <rect x="285" y="490" width="140" height="34" rx="6" fill="none" stroke="#3a3a3a" stroke-width="1"/>
      <text x="355" y="513" text-anchor="middle">Reflective DLL</text>
    </g>
    <g>
      <rect x="440" y="490" width="80" height="34" rx="6" fill="none" stroke="#3a3a3a" stroke-width="1"/>
      <text x="480" y="513" text-anchor="middle">.NET</text>
    </g>
    <g>
      <rect x="535" y="490" width="70" height="34" rx="6" fill="none" stroke="#3a3a3a" stroke-width="1"/>
      <text x="570" y="513" text-anchor="middle">PIC</text>
    </g>
    <g>
      <rect x="620" y="490" width="150" height="34" rx="6" fill="none" stroke="#3a3a3a" stroke-width="1"/>
      <text x="695" y="513" text-anchor="middle">Crystal Palace</text>
    </g>
    <g>
      <rect x="785" y="490" width="110" height="34" rx="6" fill="none" stroke="#3a3a3a" stroke-width="1"/>
      <text x="840" y="513" text-anchor="middle">IAT Hook</text>
    </g>
    <g>
      <rect x="910" y="490" width="80" height="34" rx="6" fill="none" stroke="#3a3a3a" stroke-width="1"/>
      <text x="950" y="513" text-anchor="middle">Ekko</text>
    </g>
    <g>
      <rect x="1005" y="490" width="100" height="34" rx="6" fill="none" stroke="#3a3a3a" stroke-width="1"/>
      <text x="1055" y="513" text-anchor="middle">Draugr</text>
    </g>
  </g>
</svg>
